<svg width="32" height="32" viewBox="0 0 32 32" fill="none" xmlns="http://www.w3.org/2000/svg">
  <path d="M28 4H8C6.9 4 6 4.9 6 6V12H4C2.9 12 2 12.9 2 14V26C2 27.1 2.9 28 4 28H24C25.1 28 26 27.1 26 26V20H28C29.1 20 30 19.1 30 18V6C30 4.9 29.1 4 28 4Z" fill="#036C70"/>
  <path d="M26 12H8V6H28V18H26V12Z" fill="#1A9BA1"/>
  <path d="M24 14H4V26H24V14Z" fill="#37C6D0"/>
  <circle cx="14" cy="20" r="5" fill="white"/>
  <path d="M14 17.5C14 17.2239 14.2239 17 14.5 17H15.5C15.7761 17 16 17.2239 16 17.5V18.5H17C17.2761 18.5 17.5 18.7239 17.5 19V20C17.5 20.2761 17.2761 20.5 17 20.5H16V21.5C16 21.7761 15.7761 22 15.5 22H14.5C14.2239 22 14 21.7761 14 21.5V20.5H13C12.7239 20.5 12.5 20.2761 12.5 20V19C12.5 18.7239 12.7239 18.5 13 18.5H14V17.5Z" fill="#036C70"/>
</svg>
